<svg xmlns="http://www.w3.org/2000/svg" width="98" height="63" viewBox="0 0 98 63">
  <g id="Group_48" data-name="Group 48" transform="translate(-289 -35)">
    <g id="Group_36" data-name="Group 36">
      <g id="Group_35" data-name="Group 35">
        <g id="Group_19" data-name="Group 19" transform="translate(289 26.241)">
          <path id="Polygon_1" data-name="Polygon 1" d="M45,0,90,24H0Z" transform="translate(4 8.759)" fill="#afafb9"/>
          <g id="Group_1" data-name="Group 1" transform="translate(0 60.788)">
            <g id="Group_20" data-name="Group 20">
              <g id="Component_2_48" data-name="Component 2 – 48" transform="translate(0 -2.029)">
                <g id="Rectangle_3" data-name="Rectangle 3" transform="translate(0 8)" fill="none" stroke="#afafb9" stroke-width="1">
                  <rect width="98" height="5" stroke="none"/>
                  <rect x="0.5" y="0.5" width="97" height="4" fill="none"/>
                </g>
                <g id="Rectangle_46" data-name="Rectangle 46" transform="translate(8 4)" fill="none" stroke="#afafb9" stroke-width="1">
                  <rect width="83" height="5" stroke="none"/>
                  <rect x="0.5" y="0.5" width="82" height="4" fill="none"/>
                </g>
                <g id="Rectangle_47" data-name="Rectangle 47" transform="translate(14)" fill="none" stroke="#afafb9" stroke-width="1">
                  <rect width="70" height="5" stroke="none"/>
                  <rect x="0.5" y="0.5" width="69" height="4" fill="none"/>
                </g>
              </g>
            </g>
          </g>
        </g>
        <path id="fescol" d="M2.7,11.862l.791,0L3.5,10.8q.021-1.667.429-2.649T5.288,6.723q.947-.443,2.583-.433,2.89.018,2.871,1.536-.006.493-.313.842t-.717.347q-.193,0-.664-.081t-.8-.082q-.9,0-1.158.56T6.817,11.03l-.011.845.812,0q1.888.006,1.872,1.226-.011.87-.516,1.1t-1.389.231H6.774l-.12,9.394q-.013,1.052-.487,1.606t-1.214.558q-.7,0-1.165-.547t-.448-1.6l.119-9.411-.913,0q-.743,0-1.141-.36t-.391-.933Q1.03,11.857,2.7,11.862ZM20.4,19.63l-6.4.008q0,1.2.423,2.121t1.147,1.38q.72.463,1.595.46.587,0,1.074-.152t.945-.467q.458-.317.845-.679t1-.982q.254-.233.719-.233.5,0,.806.295t.3.836q-.006.476-.36,1.115t-1.059,1.227q-.706.589-1.767.98t-2.439.4q-3.156.015-4.887-1.919t-1.692-5.27q.02-1.569.472-2.911t1.3-2.3q.843-.957,2.065-1.465t2.7-.5q1.916.006,3.273.882t2.016,2.254q.66,1.379.641,2.809-.018,1.326-.726,1.72T20.4,19.63Zm-6.372-2H19.96q-.1-1.806-.867-2.7t-2.054-.9q-1.223,0-2.022.908T14.028,17.632Zm22.258,3.654q-.02,1.444-.68,2.475t-1.931,1.568q-1.273.537-3.089.545-1.737.008-2.971-.564T25.8,23.872q-.582-.866-.57-1.74.008-.579.393-.991t.967-.413q.51,0,.779.268t.511.757q.484.936,1.17,1.4t1.878.455q.967,0,1.592-.473t.633-1.071q.013-.922-.623-1.343t-2.106-.8q-1.66-.447-2.7-.94t-1.66-1.3q-.618-.81-.6-1.994.014-1.055.609-1.993T27.8,12.19q1.138-.555,2.734-.55,1.251,0,2.243.289t1.649.761q.658.475,1,1.052t.331,1.126q-.008.6-.384.985t-1.057.383q-.494,0-.837-.308T32.693,15q-.358-.513-.849-.822t-1.341-.31q-.874,0-1.459.4t-.594,1.007q-.008.552.414.906T30,16.771q.717.231,1.975.565,1.491.4,2.43.947t1.415,1.3Q36.3,20.327,36.286,21.286Zm14.2.211q-.009.647-.372,1.383t-1.1,1.405q-.733.669-1.839,1.08t-2.489.418q-2.945.014-4.575-1.859t-1.589-5.043q.03-2.145.814-3.792t2.232-2.541q1.447-.894,3.436-.888,1.231,0,2.252.4t1.723,1.021q.7.624,1.068,1.329t.356,1.314q-.009.622-.437,1.053t-1.03.431q-.393,0-.651-.222t-.575-.718q-.566-.966-1.191-1.45t-1.6-.486q-1.407,0-2.286,1.2t-.909,3.294q-.014.981.2,1.8t.621,1.4q.411.578,1,.876t1.3.295q.952,0,1.638-.488T47.7,21.237q.3-.585.638-.915t.826-.331q.578,0,.952.481T50.484,21.5Zm14.589-2.762q-.023,1.535-.474,2.831T63.315,23.8q-.834.935-1.981,1.437t-2.577.51q-1.419.007-2.547-.494t-1.948-1.44q-.82-.94-1.233-2.224t-.39-2.843q.023-1.571.48-2.876T54.4,13.641q.83-.922,2-1.419t2.563-.491q1.418,0,2.564.513t1.95,1.442q.805.933,1.212,2.218T65.074,18.735Zm-3.118,0q.031-2.1-.789-3.278t-2.24-1.177q-.916,0-1.623.522t-1.1,1.548q-.394,1.024-.414,2.39t.338,2.364q.358,1.01,1.044,1.545t1.624.532q1.417,0,2.274-1.186T61.955,18.737Zm5.6,4.881.226-14.876q.016-1.031.437-1.557t1.123-.521q.7,0,1.123.528t.405,1.565l-.227,14.85q-.016,1.04-.459,1.562t-1.132.525q-.679,0-1.095-.535T67.555,23.618Z" transform="translate(300.989 55.525)" fill="#afafb9"/>
      </g>
    </g>
  </g>
</svg>
