<svg xmlns="http://www.w3.org/2000/svg" width="171.466" height="137.173" viewBox="0 0 171.466 137.173">
  <path id="Path_164" data-name="Path 164" d="M36.019,4H139.447c3.76,0,7.005,0,9.691.183a26.321,26.321,0,0,1,8.451,1.775,25.719,25.719,0,0,1,13.919,13.92,26.337,26.337,0,0,1,1.776,8.45c.183,2.686.183,5.93.183,9.691v69.135c0,3.76,0,7.005-.183,9.691a26.343,26.343,0,0,1-1.776,8.451,25.717,25.717,0,0,1-13.919,13.919,26.343,26.343,0,0,1-8.451,1.776c-2.686.183-5.931.183-9.691.183H36.019c-3.761,0-7.005,0-9.691-.183a26.337,26.337,0,0,1-8.45-1.776A25.719,25.719,0,0,1,3.958,125.3a26.321,26.321,0,0,1-1.775-8.451C2,114.159,2,110.914,2,107.154V38.019c0-3.761,0-7.006.183-9.691a26.315,26.315,0,0,1,1.775-8.45,25.72,25.72,0,0,1,13.92-13.92,26.315,26.315,0,0,1,8.45-1.775C29.013,4,32.258,4,36.019,4ZM21.868,23.528a8.573,8.573,0,0,1,12.1-.806L82.087,64.827a8.573,8.573,0,0,0,11.291,0L141.5,22.722a8.573,8.573,0,0,1,11.291,12.9L104.669,77.732a25.719,25.719,0,0,1-33.873,0L22.675,35.626A8.573,8.573,0,0,1,21.868,23.528Z" transform="translate(-2 -4)" fill="#1d3665" fill-rule="evenodd"/>
</svg>
