<svg xmlns="http://www.w3.org/2000/svg" width="78.99" height="78.991" viewBox="0 0 78.99 78.991">
  <path id="Intersection_1" data-name="Intersection 1" d="M30.441,63.138C12.868,44.638,9.719,28.779,9.322,21.408a10.119,10.119,0,0,1,3.022-7.48l6.888-7.254C23.07,2.636,29.542,3.261,32.889,8l5.534,7.828a9.815,9.815,0,0,1-.688,12.331l-1.26,1.326s-4.75,5,8.216,18.653,17.72,8.651,17.72,8.651l2-2.1a8.575,8.575,0,0,1,10.6-1.473L83.4,58.035a9.879,9.879,0,0,1,2.362,15.122L79.529,79.72a9.4,9.4,0,0,1-5.814,3.114c-.953.094-2.089.161-3.388.161C61.882,83,46.594,80.143,30.441,63.138Z" transform="translate(-9.31 -4.005)" fill="#1d3665"/>
</svg>
