<svg xmlns="http://www.w3.org/2000/svg" width="82.667" height="82.277" viewBox="0 0 82.667 82.277">
  <path id="Path_4" data-name="Path 4" d="M456.56,212.916l-14.769-8.165a6.5,6.5,0,0,0-6.239-.039l-14.862,7.98c-4.933,2.649-10.655-1.715-9.683-7.384l2.929-17.08a7.108,7.108,0,0,0-1.892-6.161l-11.916-12.183c-3.955-4.044-1.719-11.032,3.784-11.826l16.579-2.391a6.721,6.721,0,0,0,5.069-3.769l7.5-15.509a6.6,6.6,0,0,1,12.022.075l7.317,15.6a6.73,6.73,0,0,0,5.025,3.832l16.55,2.6c5.493.862,7.648,7.878,3.646,11.873L465.561,182.4a7.1,7.1,0,0,0-1.964,6.137l2.73,17.115C467.234,211.334,461.462,215.626,456.56,212.916Z" transform="translate(-397.566 -132.054)" fill="#1d3665" stroke="rgba(0,0,0,0)" stroke-miterlimit="10" stroke-width="1"/>
</svg>
